<svg xmlns="http://www.w3.org/2000/svg" viewBox="0 0 160 220"><g><polygon fill="#FDBC3D" points="85.981 97.321 85 97.712 64.393 105.94 70.724 112.488"/><path fill="#8EC63F" d="m56.42594,67.73726l-14.50614,15.08447l10.26645,10.54809c8.64873,-7.16839 17.83252,-10.5023 18.65299,-10.78834l-14.4133,-14.84423l0,0.00001z"/><polygon fill="#208ECB" points="56.426 67.737 41.654 53.07 27.427 67.87 41.92 82.822"/><path fill="#273C8B" d="m36.05425,47.30221l-6.9432,2.79133c-4.48683,1.80339 -8.41602,4.35008 -11.74178,7.41741l10.0582,10.35866l14.22763,-14.7997l-5.60085,-5.7677z"/><path fill="#EE4649" d="m114.36142,127.95096l-0.24338,-0.25091l-5.65229,5.67612c1.89622,-1.5161 4.28673,-3.66009 5.89567,-5.42522l0,0.00001z"/><path fill="#F6944E" d="m97.3757,139.9104l3.70839,-1.87552c2.6458,-1.33858 5.10782,-2.90424 7.38166,-4.6587l5.65229,-5.67612l-14.31106,-15.2852l-14.49296,15.07193l12.06168,12.42362l0,-0.00001z"/><polygon fill="#FFC951" points="85.566 97.749 70.724 112.488 85.313 127.487 99.806 112.415"/><path fill="#F6CC18" d="m64.37465,105.94775l-11.25627,4.49373c-3.3013,0.97226 -6.09639,2.84214 -8.43358,5.08085l11.54733,11.89169l14.49296,-14.92578l-6.35043,-6.54049l-0.00001,0z"/><path fill="#C5D82D" d="m52.17309,93.38174l-10.25265,-10.56001l-14.6341,14.92703l11.78443,11.99143c3.30381,-6.888 8.17389,-12.27182 13.10232,-16.35845z"/><polygon fill="#0D77B3" points="27.427 67.87 12.921 82.809 27.286 97.749 41.92 82.822"/><path fill="#2A377E" d="m27.42684,67.86961l-10.0582,-10.35866c-5.43902,5.02251 -9.24526,11.47205 -11.09319,18.45477l6.64462,6.84346l14.50676,-14.93958l0.00001,0.00001z"/><path fill="#DA2128" d="m90.11385,152.27693l-4.87134,5.01687l14.80848,15.39685l0,0c-0.63166,-1.94201 -1.60517,-4.43727 -2.57931,-6.30715l-7.35782,-14.10657l-0.00001,0z"/><polygon fill="#F8A561" points="86.526 145.398 97.359 139.919 85.313 127.487 70.807 142.427 85.243 157.294 90.114 152.277"/><polygon fill="#FDBC3D" points="70.724 112.488 56.231 127.414 70.807 142.427 85.313 127.487"/><path fill="#FAD412" d="m44.68479,115.52232c-6.71048,6.47275 -9.66428,16.04733 -9.66428,16.04733c-0.29983,-4.60538 0.05896,-8.82939 0.9064,-12.69773l-8.51262,8.7422l14.31106,14.73948l14.50614,-14.93958l-11.5467,-11.89169l0,-0.00001z"/><path fill="#C4D52D" d="m39.07014,109.74019l-11.78443,-11.99143l-13.2905,13.68693l3.70776,6.17856l9.71069,10.00049l8.52014,-8.77607c0.71571,-3.24923 1.82346,-6.34165 3.13633,-9.09848l0.00001,0z"/><path fill="#1B80C1" d="m12.92071,82.80919l-7.63821,7.71975c0.64985,5.10029 2.34911,10.30095 5.19313,15.03994l3.51959,5.86681l13.2905,-13.68693l-14.365,-14.93958l-0.00001,0.00001z"/><path fill="#1A4685" d="m6.27609,75.96572c-1.22003,4.66748 -1.59702,9.68372 -0.99296,14.56322l7.63821,-7.71975l-6.64525,-6.84346l0,-0.00001z"/><path fill="#B12026" d="m85.24314,187.17295l12.50265,13.02203c4.14246,-8.35455 5.14734,-18.25467 2.30645,-27.50433l-0.30234,-0.31112l-14.50676,14.79342z"/><polygon fill="#E42028" points="85.243 157.294 70.807 172.306 85.243 187.173 99.749 172.38"/><polygon fill="#F16B4E" points="70.807 142.427 56.231 157.294 70.807 172.306 85.243 157.294"/><polygon fill="#FAD412" points="56.231 127.414 41.725 142.354 56.231 157.294 70.807 142.427"/><polygon fill="#FFC951" points="27.414 127.615 25.122 129.976 36.054 148.195 41.725 142.354"/><polygon fill="#FFC951" points="17.704 117.614 25.122 129.976 27.414 127.615"/><path fill="#981C20" d="m97.74516,200.19435l-12.50265,-13.02203l-14.50551,14.93958l12.9179,13.30367c6.25383,-3.75105 11.0292,-9.09033 14.09026,-15.22122z"/><polygon fill="#C92039" points="70.807 172.306 58.217 185.129 64.64 195.833 70.738 202.113 85.243 187.173"/><polygon fill="#F05B41" points="56.231 157.294 47.136 166.662 58.217 185.129 70.807 172.306"/><polygon fill="#F6CC18" points="41.725 142.354 36.054 148.195 47.136 166.662 56.231 157.294"/><path fill="#7A1319" d="m69.29805,203.59476l8.9034,14.83796l4.1042,-2.23683c0.42842,-0.23334 0.934,-0.53318 1.34925,-0.77969l-12.9179,-13.30367l-1.43895,1.48223z"/><polygon fill="#981C20" points="64.64 195.833 69.298 203.595 70.738 202.113"/><path fill="#15796E" d="m143.12968,37.91707l10.65285,-10.9715c0.50808,-2.27321 0.82046,-4.59597 0.94278,-6.93944l-11.41372,-11.75558l-14.48042,14.93958l14.29851,14.72693l0,0.00001z"/><polygon fill="#29B364" points="128.818 23.177 143.312 8.251 140.575 5.286 119.624 13.708"/><path fill="#21A29F" d="m147.10592,42.01186c3.05792,-4.33378 5.434,-9.93212 6.67724,-15.06628l-10.65285,10.9715l3.97561,4.09479l0,-0.00001z"/><path fill="#12827F" d="m154.72531,20.00614c0.30736,-6.28018 -0.78283,-12.86207 -3.48822,-19.00614l-1.41009,0.56705l-6.51603,6.68414l11.41435,11.75495l-0.00001,0z"/><polygon fill="#12827F" points="149.828 1.567 140.575 5.286 143.312 8.251"/><polygon fill="#0C6355" points="128.624 52.857 143.13 37.917 128.818 23.204 114.325 38.13"/><polygon fill="#1B974D" points="99.819 23.191 114.325 38.13 128.805 23.191 119.605 13.715 102.242 20.696"/><polygon fill="#16669F" points="102.242 20.696 98.757 22.096 99.819 23.191"/><path fill="#44BFBD" d="m131.18781,55.49743c6.56998,-3.18274 11.9632,-7.88535 15.91811,-13.48558l-3.97623,-4.09479l-14.50614,14.93958l2.56426,2.64079z"/><polygon fill="#0D5650" points="110.997 64.582 122.049 59.627 128.624 52.857 114.325 38.13 99.819 53.07"/><polygon fill="#3FAF49" points="114.325 38.13 99.819 23.191 85.243 38.058 99.806 53.057"/><polygon fill="#0D77B3" points="99.819 23.191 98.757 22.096 77.788 30.526 85.243 38.058"/><path fill="#0C6355" d="m130.05308,56.04002c0.35252,-0.15744 0.7891,-0.37573 1.13472,-0.54258l-2.56426,-2.64079l-6.57374,6.7707l8.00328,-3.58733z"/><polygon fill="#12827F" points="110.997 64.582 99.819 53.07 85.313 68.009 90.782 73.643"/><polygon fill="#4EB648" points="99.819 53.07 85.243 38.058 70.807 53.07 85.3 67.997"/><polygon fill="#16669F" points="85.243 38.058 77.788 30.526 56.921 38.914 70.807 53.07"/><path fill="#FBB139" d="m124.81291,108.83505c1.9025,-7.14392 2.10887,-15.01861 0.35315,-22.53827l-11.04802,11.37922l10.69487,11.15905z"/><path fill="#E2B523" d="m105.90651,89.36474l8.21153,8.31126l11.04802,-11.37922c-0.32869,-1.38877 -0.72136,-2.77251 -1.18616,-4.14936l-18.07339,7.21731l0,0.00001z"/><polygon fill="#189590" points="85.313 68.009 71.415 82.324 90.782 73.643"/><polygon fill="#8EC63F" points="71.37 82.344 85.313 68.009 70.807 53.07 56.426 67.737 70.839 82.581"/><polygon fill="#0D77B3" points="70.807 53.07 56.921 38.914 54.656 39.825 41.654 53.07 56.426 67.737"/><polygon fill="#1953A2" points="54.656 39.825 36.054 47.302 41.654 53.07"/><path fill="#ED3551" d="m114.6117,127.66304c0.88507,-0.98794 2.14964,-2.59061 2.94187,-3.64629l-3.17083,3.41107l0.22895,0.23522l0.00001,0z"/><path fill="#F8A561" d="m114.11804,127.70005l3.43616,-3.6833c3.33203,-4.58343 5.79342,-9.73327 7.25871,-15.1817l-10.69487,-11.15905l-14.31106,14.73948l14.31106,15.28457z"/><polygon fill="#E9B520" points="85.566 97.749 99.806 112.415 114.118 97.676 105.906 89.365 85.981 97.321"/><path fill="#EE4649" d="m114.11804,127.70005l0.24338,0.25091c0.08531,-0.09534 0.16623,-0.19257 0.25028,-0.28791l-0.22832,-0.23522l-0.26533,0.27223l-0.00001,-0.00001z"/></g></svg>