<svg xmlns="http://www.w3.org/2000/svg" width="330" height="328" fill="none" viewBox="0 0 330 328"><path fill="#A299FF" d="M276.209 182.797L265.583 249.633L328.794 273.877L328.785 213.146L276.209 182.797Z"/><path fill="#7366FF" d="M0.810547 243.506V84.4956L53.4121 101.175V213.136L138.519 262.271L144.878 286.511L138.519 323.008L0.810547 243.506Z"/><path fill="#7366FF" d="M138.532 65.7373L53.4123 114.863L0.810791 84.4957L138.5 5L276.209 84.4957L247.154 107.644L223.639 114.872L138.532 65.7373Z"/><path fill="#5219FF" d="M328.811 273.854L276.209 304.243L223.639 273.854V213.139L328.811 273.854Z"/><path fill="#A299FF" d="M138.532 103.424L138.5 164.145L191.118 194.503L191.108 133.772L138.532 103.424Z"/><path fill="#5219FF" d="M138.5 164.146L85.9177 194.503L138.51 224.877L191.118 194.503L138.5 164.146Z"/><path fill="#7366FF" d="M138.532 103.424L85.924 133.797L85.9177 194.503L138.5 164.145L138.532 103.424Z"/><path fill="url(#paint0_linear)" d="M276.209 84.4956V182.797L223.639 213.139V114.872L276.209 84.4956Z"/><path fill="url(#paint1_linear)" d="M276.224 182.766L138.519 262.271V323.008L276.209 243.497L276.224 182.766Z"/><defs><linearGradient id="paint0_linear" x1="249.925" x2="249.925" y1="84.495" y2="213.14" gradientUnits="userSpaceOnUse"><stop offset=".25" stop-color="#7366FF"/><stop offset="1" stop-color="#5219FF"/></linearGradient><linearGradient id="paint1_linear" x1="138.517" x2="276.223" y1="252.888" y2="252.888" gradientUnits="userSpaceOnUse"><stop stop-color="#7366FF"/><stop offset="1" stop-color="#A299FF"/></linearGradient></defs></svg>